.
 
http://www.scenetime.com    -  Hottest private tracker on the net. !!!

New release on http://www.scenetime.com

        Seed back for speed


...................................NFO:.................................................ooooo oooo   oooo oooooooo8 oooooooooo  o88   oooooooooo       o      ooooo       
 888   8888o  88 888         888    888 oooo   888    888     888      888        
 888   88 888o88  888oooooo  888oooo88   888   888oooo88     8  88     888        
 888   88   8888         888 888         888   888  88o     8oooo88    888      o 
o888o o88o    88 o88oooo888 o888o       o888o o888o  88o8 o88o  o888o o888ooooo88 

 
TITLE: 

Sins Of The Father A Very British Gangster 2 2012 DVDRiP AC3 READNFO XViD - INSPiRAL

IMDB: 
 
http://www.imdb.com/title/tt1859441/


SOURCES:

VIDEO - DTRG DVDR ( LEGEND RG ) THANKS
AUDIO - DTRG DVDR ( LEGEND RG ) THANKS
SUBS  - None Add

STATS:

Video
ID                               : 0
Format                           : MPEG-4 Visual
Format profile                   : Advanced Simple@L5
Format settings, BVOP            : 2
Format settings, QPel            : No
Format settings, GMC             : No warppoints
Format settings, Matrix          : Default (MPEG)
Muxing mode                      : Packed bitstream
Codec ID                         : XVID
Codec ID/Hint                    : XviD
Duration                         : 1h 17mn
Bit rate                         : 2 087 Kbps
Width                            : 720 pixels
Height                           : 400 pixels
Display aspect ratio             : 16:9
Frame rate                       : 25.000 fps
Color space                      : YUV
Chroma subsampling               : 4:2:0
Bit depth                        : 8 bits
Scan type                        : Progressive
Compression mode                 : Lossy
Bits/(Pixel*Frame)               : 0.290
Stream size                      : 1.13 GiB (82%)
Writing library                  : XviD 64

Audio
ID                               : 1
Format                           : AC-3
Format/Info                      : Audio Coding 3
Mode extension                   : CM (complete main)
Codec ID                         : 2000
Duration                         : 1h 17mn
Bit rate mode                    : Constant
Bit rate                         : 448 Kbps
Channel(s)                       : 6 channels
Channel positions                : Front: L C R, Side: L R, LFE
Sampling rate                    : 48.0 KHz
Bit depth                        : 16 bits
Compression mode                 : Lossy
Stream size                      : 248 MiB (18%)
Alignment                        : Aligned on interleaves
Interleave, duration             : 40 ms (1.00 video frame)
Interleave, preload duration     : 512 ms



NOTES:

First off thanks to DTRG for sending us these vobs ,they might have original come from legend rg so both grps mentioned :)
DVDR was shite IMHO ....dull,washedout,sharpness ....ermm what sharpness!!Only good thing really was the audio.
So stripped the 5.1 track and saved that and remuxed to our encode.
The video i had to adjust the brightness,contrast,chroma,rgb eq and sharpness .....came out MUCH better than the vobs.
Enjoy folks :)

Oh just so you know there is homemade footage added to the video,so Q does change aswell as black borders come and go ...its meant
to be that way ;-)

SCREENS:

[IMG]http://i.imgur.com/m3zJB.png[/IMG]
[IMG]http://i.imgur.com/ltLqY.png[/IMG]
[IMG]http://i.imgur.com/ltq0C.png[/IMG]
[IMG]http://i.imgur.com/CQ5Zt.png[/IMG]
[IMG]http://i.imgur.com/f3xxS.png[/IMG]


GREETZ: 

Past,Present and Future